<svg width="240" height="67" viewBox="0 0 240 67" fill="none" xmlns="http://www.w3.org/2000/svg">
<path d="M28.944 11.64H33.312V14.424H44.832V18.12H33.312V20.472H43.152V24.072H33.312V26.472H46.032V30.264H16.368V26.472H28.944V24.072H19.728V20.472H28.944V18.12H17.712V14.424H28.944V11.64ZM24.096 42.36V45.048H38.352V42.36H24.096ZM38.352 38.904V36.168H24.096V38.904H38.352ZM24.096 48.504V55.944H19.776V32.472H42.72V51.192C42.72 54.168 41.2 55.656 38.16 55.656H34.176L33.12 51.624L36.864 51.864C37.856 51.864 38.352 51.336 38.352 50.28V48.504H24.096ZM8.352 12.024C11.52 14.456 14.128 16.808 16.176 19.08L13.056 22.248C11.104 19.944 8.464 17.576 5.136 15.144L8.352 12.024ZM1.824 25.944H12.72V46.008C13.52 45.24 14.8 43.944 16.56 42.12L17.76 46.92C15.008 49.768 12.048 52.312 8.88 54.552L7.152 50.424C7.952 49.72 8.352 48.872 8.352 47.88V30.312H1.824V25.944ZM54.576 12.12C57.744 14.616 60.432 17.112 62.64 19.608L59.376 22.872C57.552 20.536 54.896 17.96 51.408 15.144L54.576 12.12ZM82.032 55.128C80.432 55.128 77.616 55.096 73.584 55.032C70.608 55 68.096 54.728 66.048 54.216C64.224 53.672 62.56 52.552 61.056 50.856C60.448 50.056 59.856 49.656 59.28 49.656C58.32 49.656 56.608 51.816 54.144 56.136L50.784 53.016C53.184 49.112 55.344 46.68 57.264 45.72V32.136H50.784V27.912H61.536V46.104L62.208 46.776C63.264 48.056 64.4 49.016 65.616 49.656C67.088 50.36 69.168 50.76 71.856 50.856C75.44 50.92 78.624 50.952 81.408 50.952C82.912 50.952 85.296 50.92 88.56 50.856C90.672 50.824 92.528 50.744 94.128 50.616L93.024 55.128H82.032ZM64.176 16.2H71.664C72.176 14.792 72.752 13.128 73.392 11.208L77.712 12.216C76.912 14.552 76.448 15.88 76.32 16.2H92.64V20.472H74.592C73.312 23.288 71.936 25.816 70.464 28.056H76.704V22.92H81.072V28.056H91.104V32.184H81.072V36.888H93.168V41.112H81.072V49.368H76.704V41.112H63.744V36.888H76.704V32.184H66.144L65.136 28.008C66.736 26.088 68.288 23.576 69.792 20.472H64.176V16.2ZM121.824 19.752C122.944 21.704 124.048 23.944 125.136 26.472H129.216C130.304 24.424 131.328 22.168 132.288 19.704H115.104V15.576H125.088C124.576 14.264 124.048 13.08 123.504 12.024L128.256 11.256C128.736 12.536 129.216 13.976 129.696 15.576H140.208V19.704H133.968L136.704 20.664C135.872 22.776 134.976 24.712 134.016 26.472H141.072V30.84H114V26.472H120.768C119.808 24.456 118.928 22.792 118.128 21.48L121.824 19.752ZM99.648 55.512L98.64 51.096C100.016 51.256 101.232 51.336 102.288 51.336C103.408 51.336 103.968 50.76 103.968 49.608V39.288C102.24 39.96 100.464 40.584 98.64 41.16L97.488 36.6C99.696 36.12 101.856 35.496 103.968 34.728V24.84H98.496V20.472H103.968V11.784H108.576V20.472H112.176V24.84H108.576V32.808C109.792 32.232 110.992 31.608 112.176 30.936V35.544C111.376 35.96 110.176 36.552 108.576 37.32V50.76C108.576 53.928 107.008 55.512 103.872 55.512H99.648ZM127.248 32.088C126.832 33.176 126.4 34.232 125.952 35.256H141.84V39.672H136.848C136.144 42.84 134.816 45.56 132.864 47.832C135.776 49.144 138.688 50.616 141.6 52.248L139.104 55.896C136.512 54.264 133.344 52.584 129.6 50.856C126.336 53.064 121.376 54.84 114.72 56.184L112.944 52.056C118.032 51.16 121.968 50.024 124.752 48.648C121.2 47.112 118.24 45.88 115.872 44.952C116.896 43.416 117.968 41.656 119.088 39.672H113.376V35.256H121.344C122.048 33.656 122.56 32.44 122.88 31.608L127.248 32.088ZM123.648 39.672C123.104 40.632 122.368 41.784 121.44 43.128C123.776 43.928 126.208 44.888 128.736 46.008C130.528 44.248 131.808 42.136 132.576 39.672H123.648ZM190.032 43.032C189.648 48.088 189.072 51.384 188.304 52.92C187.568 54.424 186.016 55.176 183.648 55.176H173.712C171.344 55.176 170.16 53.56 170.16 50.328V29.304H183.024V17.64H169.68V13.32H187.392V33.72H174.624V48.504C174.624 50.008 174.976 50.808 175.68 50.904H182.88C183.936 50.904 184.608 50.248 184.896 48.936C185.184 47.624 185.376 45.176 185.472 41.592L190.032 43.032ZM146.208 13.272H168.384V17.592H162.576V22.152H167.76V55.752H163.728V53.448H151.248V55.752H147.216V22.152H152.304V17.592H146.208V13.272ZM151.248 49.176H163.728V45.336H151.248V49.176ZM153.264 26.28H151.248V37.608C152.56 35.592 153.232 32.696 153.264 28.92V26.28ZM151.248 38.376V41.208H163.728V37.992H161.904C159.664 37.992 158.544 36.824 158.544 34.488V26.28H156.24V28.92C156.208 34.008 155.216 37.768 153.264 40.2L151.248 38.376ZM156.192 22.152H158.688V17.592H156.192V22.152ZM163.728 34.536V26.28H161.568V33.576C161.568 34.216 161.968 34.536 162.768 34.536H163.728ZM208.32 13.224C207.136 17 205.568 20.584 203.616 23.976V55.944H199.152V30.6C197.968 32.136 196.544 33.784 194.88 35.544L193.392 30.696C198.192 25.128 201.744 18.648 204.048 11.256L208.32 13.224ZM216.576 15.288C216.16 17.656 215.712 19.704 215.232 21.432H220.992V11.832H225.552V21.432H236.16V25.896H225.552V36.216H237.936V40.632H225.552V55.752H220.992V40.632H207.36V36.216H220.992V25.896H213.744C212.528 28.936 211.072 31.688 209.376 34.152L206.448 30.36C209.264 26.04 211.152 20.824 212.112 14.712L216.576 15.288Z" fill="#4999BC"/>
</svg>
