<svg width="832" height="90" viewBox="0 0 832 90" fill="none" xmlns="http://www.w3.org/2000/svg">
<path d="M40.96 15.712C40.4907 19.2533 39.9573 22.3253 39.36 24.928H59.648V28.896C58.624 34.4 57.344 39.84 55.808 45.216L49.856 43.552C51.264 39.7973 52.416 35.5307 53.312 30.752H37.76C36.1813 35.5733 34.2187 39.4773 31.872 42.464L27.008 38.944C31.1467 33.0987 33.792 25.0347 34.944 14.752L40.96 15.712ZM24.448 64.544C22.7413 61.8987 20.7147 58.8907 18.368 55.52C14.784 62.6453 10.432 68.256 5.312 72.352L2.304 66.912C7.424 63.072 11.584 57.632 14.784 50.592C11.0293 45.6427 7.232 41.0347 3.392 36.768L7.424 32.864C10.24 35.68 13.5253 39.4347 17.28 44.128C18.816 39.392 20.032 34.1013 20.928 28.256H3.392V22.368H26.88V28C25.472 35.8507 23.5733 42.9333 21.184 49.248C23.7867 52.7467 26.3467 56.352 28.864 60.064L24.448 64.544ZM46.784 34.592C46.784 38.9013 46.528 42.912 46.016 46.624C49.088 56.224 54.3573 63.968 61.824 69.856L57.728 74.656C51.84 69.4507 47.296 63.1787 44.096 55.84C44.0533 55.84 44.032 55.8827 44.032 55.968C41.8133 63.4773 36.5013 69.7067 28.096 74.656L24.256 69.92C31.3813 65.6533 36.0107 60.512 38.144 54.496C39.8507 49.376 40.7467 42.7413 40.832 34.592H46.784ZM72.384 16.096C76.6933 19.5093 80.32 22.88 83.264 26.208L79.04 30.368C76.3947 27.0827 72.832 23.6267 68.352 20L72.384 16.096ZM110.784 73.44C108.565 73.44 104.597 73.3973 98.88 73.312C94.4853 73.2267 90.944 72.8427 88.256 72.16C85.5253 71.392 83.1787 69.8987 81.216 67.68C80.3627 66.5707 79.5093 66.016 78.656 66.016C77.248 66.016 74.8373 69.0667 71.424 75.168L67.136 71.136C70.3787 65.8027 73.344 62.432 76.032 61.024V42.784H67.2V37.28H81.6V61.408L82.688 62.496C84.352 64.2027 85.9733 65.504 87.552 66.4C89.6427 67.3387 92.6293 67.872 96.512 68C101.547 68.0853 106.048 68.128 110.016 68.128C111.851 68.128 114.816 68.0853 118.912 68C123.093 67.8293 125.419 67.7227 125.888 67.68L124.544 73.44H110.784ZM85.504 56.288C86.6133 55.776 87.168 54.8587 87.168 53.536V21.344C92.416 19.68 96.576 17.76 99.648 15.584L102.848 20.192C100.16 22.0693 96.768 23.7547 92.672 25.248V54.176C95.9147 53.2373 98.9653 52.2773 101.824 51.296L102.784 56.608C98.4747 58.016 93.2053 59.552 86.976 61.216L85.504 56.288ZM113.088 58.976L111.488 53.472L115.968 53.664C117.248 53.664 117.888 52.9387 117.888 51.488V24.352H110.144V66.08H104.704V19.104H123.328V52.64C123.328 56.864 121.472 58.976 117.76 58.976H113.088ZM149.888 21.536H165.952V15.52H172.032V21.536H189.248V27.36H172.032V32.416H186.816V51.424H171.776C171.264 56.7573 170.283 60.896 168.832 63.84C174.933 66.9547 181.909 68.704 189.76 69.088L188.288 74.912C179.584 74.3147 171.947 72.1813 165.376 68.512C161.963 71.7547 156.587 73.888 149.248 74.912L146.624 69.408C152.64 68.896 157.099 67.4453 160 65.056C156.587 62.496 153.429 59.4453 150.528 55.904L155.2 52.704C157.675 55.776 160.427 58.3787 163.456 60.512C164.523 57.952 165.248 54.9227 165.632 51.424H151.68V32.416H165.952V27.36H149.888V21.536ZM181.12 45.984V37.792H172.032V45.984H181.12ZM165.952 45.984V37.792H157.376V45.984H165.952ZM137.344 41.056C135.637 43.232 133.803 45.3867 131.84 47.52L129.856 40.992C136.128 33.568 140.736 24.9067 143.68 15.008L149.44 17.696C147.947 22.4747 145.963 27.1253 143.488 31.648V74.72H137.344V41.056ZM206.464 38.752V48.544H221.184V38.752H206.464ZM206.144 54.176C205.376 62.24 203.008 68.896 199.04 74.144L194.368 69.984C198.208 64.48 200.192 57.504 200.32 49.056V17.696H249.408V65.888C249.408 70.7093 246.955 73.12 242.048 73.12H234.688L233.088 67.168C235.861 67.3813 238.187 67.488 240.064 67.488C242.155 67.488 243.2 66.2293 243.2 63.712V54.176H227.328V72.416H221.184V54.176H206.144ZM243.2 48.544V38.752H227.328V48.544H243.2ZM243.2 33.184V23.584H227.328V33.184H243.2ZM221.184 23.584H206.464V33.184H221.184V23.584ZM289.792 15.136C290.389 16.8427 290.965 18.592 291.52 20.384H316.416V26.016H259.52V20.384H284.928C284.373 18.976 283.733 17.6107 283.008 16.288L289.792 15.136ZM300.736 74.4L299.328 68.96L304.256 69.216C306.645 69.216 307.84 68.3627 307.84 66.656V50.464H268.16V74.592H262.4V45.216H313.6V67.936C313.6 72.2453 311.083 74.4 306.048 74.4H300.736ZM269.568 29.024H306.496V42.336H269.568V29.024ZM300.672 37.728V33.632H275.392V37.728H300.672ZM275.008 53.536H301.056V66.976H275.008V53.536ZM295.68 62.496V58.016H280.448V62.496H295.68ZM335.296 15.648H341.248V22.624H349.12V28.32H341.248V34.208H349.952V40.16H322.624V34.208H325.824V20.896H331.648V34.208H335.296V15.648ZM351.168 45.984C348.352 60.3627 340.096 69.8347 326.4 74.4L322.944 68.832C329.771 66.8267 335.189 63.52 339.2 58.912H335.04V42.016H340.864V56.736C343.211 53.28 344.875 49.2907 345.856 44.768L351.168 45.984ZM332.736 47.072C331.243 53.1307 329.323 57.7813 326.976 61.024L322.432 57.056C324.693 53.984 326.357 49.952 327.424 44.96L332.736 47.072ZM350.656 17.696H381.12V23.392H368.768C368.64 25.3973 368.448 27.296 368.192 29.088H379.328V60.128H373.44V34.656H358.272V60.128H352.448V29.088H361.856C362.027 27.8507 362.24 25.952 362.496 23.392H350.656V17.696ZM371.136 59.872C375.317 63.328 378.901 66.8267 381.888 70.368L377.408 74.848C375.061 71.52 371.605 67.8293 367.04 63.776L371.136 59.872ZM362.752 37.856H368.64V49.12C368.384 56.0747 366.912 61.6427 364.224 65.824C361.493 69.7067 357.163 72.6933 351.232 74.784L347.904 69.472C353.536 67.424 357.376 64.9067 359.424 61.92C361.387 58.6347 362.496 54.368 362.752 49.12V37.856ZM397.44 60.192C396.288 66.0373 394.155 70.9867 391.04 75.04L386.816 71.264C390.613 66.4427 392.597 59.7653 392.768 51.232V42.144H440.768V46.368H398.336V51.232C398.336 52.3413 398.251 53.8773 398.08 55.84H442.944V60.192H434.24L438.592 62.88C437.312 64.2027 435.584 65.696 433.408 67.36C436.779 68.5547 440.448 69.4293 444.416 69.984L441.984 74.848C429.952 72.544 421.312 67.6587 416.064 60.192H408.256V68.96C412.736 68.064 416.64 67.104 419.968 66.08L420.8 70.816C416.021 72.096 409.835 73.3547 402.24 74.592L400.896 70.368C402.304 69.7707 403.008 68.704 403.008 67.168V60.192H397.44ZM421.824 60.192C423.829 62.3253 426.283 64.1173 429.184 65.568C431.616 63.3067 433.237 61.5147 434.048 60.192H421.824ZM401.856 49.12H437.632V53.216H401.856V49.12ZM391.04 17.568H440.896V22.048H418.88V24.736H442.816V36.192H437.248V28.96H418.88V40.48H413.12V28.96H394.752V36.192H389.184V24.736H413.12V22.048H391.04V17.568ZM397.12 31.136H410.432V34.4H397.12V31.136ZM397.056 36.576H410.368V39.84H397.056V36.576ZM421.568 31.136H434.816V34.4H421.568V31.136ZM421.568 36.576H434.944V39.84H421.568V36.576ZM453.44 19.488H477.248V25.312H453.44V19.488ZM451.072 36.768H479.552V42.656H465.152C462.848 51.36 460.864 57.7813 459.2 61.92C463.339 61.024 467.605 59.7653 472 58.144C470.549 54.9867 469.077 52.0427 467.584 49.312L472.704 46.816C475.605 52.1067 478.421 58.0373 481.152 64.608L475.904 67.296L474.24 63.2C467.499 65.504 460.245 67.36 452.48 68.768L451.008 63.008C451.563 62.88 451.989 62.7093 452.288 62.496C453.995 60.0213 456.32 53.408 459.264 42.656H451.072V36.768ZM488.192 15.712H494.272V27.104H508.16C508.16 48.48 507.861 61.7493 507.264 66.912C506.581 71.648 503.381 74.016 497.664 74.016L492.16 73.76L490.752 68.384C493.312 68.5973 495.317 68.704 496.768 68.704C499.456 68.704 501.013 67.232 501.44 64.288C501.824 61.1307 502.08 50.6773 502.208 32.928H494.272V34.272C494.144 52.7893 489.749 66.3787 481.088 75.04L476.288 70.752C484.096 63.2 488.064 51.04 488.192 34.272V32.928H480.768V27.104H488.192V15.712ZM544.576 15.584H550.4V74.592H544.576V60.96H532.672V55.456H544.576V45.664H536.256V40.16H544.576V30.816H535.04V25.312H544.576V15.584ZM516.032 74.016L514.688 68.128C516.693 68.3413 518.379 68.448 519.744 68.448C521.493 68.448 522.368 67.7867 522.368 66.464V52.832C519.637 53.856 517.568 54.5813 516.16 55.008L514.688 48.864C517.419 48.2667 519.979 47.5413 522.368 46.688V33.12H515.968V27.296H522.368V15.712H528.256V27.296H533.44V33.12H528.256V44.32C530.731 43.1253 532.565 42.208 533.76 41.568V47.776C531.755 48.8 529.92 49.6747 528.256 50.4V67.936C528.256 71.9893 526.123 74.016 521.856 74.016H516.032ZM556.608 15.584H562.496V25.312H572.928V30.816H562.496V40.16H571.392V45.664H562.496V55.456H573.376V60.96H562.496V74.592H556.608V15.584ZM598.72 20.64V60.704H586.624V64.864H580.608V20.64H598.72ZM586.624 55.008H592.832V26.336H586.624V55.008ZM606.336 23.52H600.768V17.568H630.976V21.536C629.909 26.8267 628.821 31.4347 627.712 35.36H635.136V38.752C633.813 47.2427 630.955 54.4533 626.56 60.384C629.931 63.712 633.771 66.6347 638.08 69.152L634.112 74.4C629.547 71.5413 625.707 68.4267 622.592 65.056C618.581 68.9813 613.888 72.1387 608.512 74.528L605.12 69.024C610.283 66.6347 614.699 63.6693 618.368 60.128C615.253 55.9893 612.779 51.5093 610.944 46.688C608.896 58.5067 604.757 67.68 598.528 74.208L593.792 70.048C602.027 61.4293 606.208 47.7333 606.336 28.96V23.52ZM622.336 55.648C625.621 51.2107 627.861 46.2187 629.056 40.672H620.352C621.504 36.8747 622.869 31.1573 624.448 23.52H612.416V28.96C612.416 29.9413 612.373 31.3707 612.288 33.248C613.952 41.824 617.301 49.2907 622.336 55.648ZM653.376 42.208V20.064H674.432C674.261 19.552 673.728 18.2507 672.832 16.16L678.912 15.136C679.552 16.7573 680.107 18.4 680.576 20.064H700.096V26.016H659.456V41.824C659.157 55.2213 656.085 65.952 650.24 74.016L645.632 69.92C649.557 64.5867 651.968 57.696 652.864 49.248C650.517 51.296 647.659 53.4507 644.288 55.712L642.56 49.824C646.656 47.5627 650.24 45.152 653.312 42.592L653.376 42.208ZM647.68 25.248C649.472 28.832 651.115 32.928 652.608 37.536L647.488 39.712C646.037 35.2747 644.352 31.1787 642.432 27.424L647.68 25.248ZM680.064 42.656C679.637 43.2107 678.997 44 678.144 45.024C675.2 47.84 670.464 50.016 663.936 51.552L660.544 46.304C666.901 44.896 671.211 43.2107 673.472 41.248C675.605 39.1147 676.8 36.2773 677.056 32.736V27.68H683.008V32.736C682.88 34.8267 682.603 36.5973 682.176 38.048C688.576 40.3947 694.485 43.1467 699.904 46.304L696.576 51.36C691.2 47.8187 685.696 44.9173 680.064 42.656ZM677.12 47.84H683.264V52.064C683.179 53.344 683.093 54.304 683.008 54.944C684.544 61.984 690.752 66.784 701.632 69.344L697.792 74.848C689.301 72.2453 683.52 68.32 680.448 63.072C679.765 64.352 678.848 65.632 677.696 66.912C674.368 70.2827 668.971 72.928 661.504 74.848L658.048 69.408C665.216 67.744 670.165 65.5893 672.896 62.944C675.456 60.128 676.864 56.5013 677.12 52.064V47.84ZM672 54.048C670.635 57.8027 668.843 61.1733 666.624 64.16L661.76 61.408C663.851 58.72 665.557 55.6267 666.88 52.128L672 54.048ZM672.448 31.008C671.083 35.0613 669.312 38.6453 667.136 41.76L662.272 39.008C664.363 36.192 666.069 32.9067 667.392 29.152L672.448 31.008ZM698.112 30.304C696.832 34.0587 695.168 37.3867 693.12 40.288L688.256 37.536C690.133 35.0187 691.733 31.9893 693.056 28.448L698.112 30.304ZM697.92 53.472C696.597 57.3973 695.019 60.704 693.184 63.392L688.128 60.64C690.005 58.0373 691.52 54.9867 692.672 51.488L697.92 53.472ZM726.528 74.4L725.12 68.448C727.424 68.704 729.6 68.832 731.648 68.832C733.013 68.832 733.696 68.128 733.696 66.72V52.576C728.704 52.8747 722.133 53.216 713.984 53.6L712.32 48.288C714.197 48.1173 715.947 47.7547 717.568 47.2C722.389 45.1093 727.573 42.016 733.12 37.92C727.019 38.3893 721.557 38.752 716.736 39.008L715.456 33.632C716.864 33.504 718.229 33.1413 719.552 32.544C722.112 31.264 725.184 28.64 728.768 24.672C723.136 24.8853 717.803 24.992 712.768 24.992L710.976 19.744C729.067 19.744 744.533 18.5067 757.376 16.032L760.384 21.088C753.771 22.5387 745.749 23.584 736.32 24.224C732.992 28.064 729.536 31.264 725.952 33.824C731.925 33.4827 736.405 33.2053 739.392 32.992C742.336 30.56 745.131 28.128 747.776 25.696L753.408 28.448C743.381 37.152 734.549 43.6587 726.912 47.968C735.403 47.4133 743.147 46.7307 750.144 45.92C748.267 43.4453 746.816 41.5893 745.792 40.352L750.272 37.536C755.563 43.68 759.637 49.0773 762.496 53.728L757.632 57.12C756.565 55.2427 755.243 53.1307 753.664 50.784C749.397 51.296 744.768 51.744 739.776 52.128V68.192C739.776 72.3307 737.771 74.4 733.76 74.4H726.528ZM748.416 55.072C754.731 59.6373 760.064 64.2453 764.416 68.896L760.064 73.248C756.395 68.896 751.168 64.16 744.384 59.04L748.416 55.072ZM727.168 59.36C722.773 64.608 717.419 69.152 711.104 72.992L707.264 68C713.493 64.3733 718.699 60.2133 722.88 55.52L727.168 59.36ZM792.448 64.8C786.475 67.8293 779.84 70.2187 772.544 71.968L771.84 65.888C779.733 64.1387 786.603 61.8347 792.448 58.976V64.8ZM787.136 17.568C784.021 25.248 780.949 31.4347 777.92 36.128C780.096 35.872 782.272 35.552 784.448 35.168C785.685 32.864 786.816 30.6453 787.84 28.512L793.28 30.56C788.117 40.3733 783.808 47.5413 780.352 52.064C784.448 50.9547 788.48 49.5253 792.448 47.776V53.344C785.621 56.2027 779.051 58.144 772.736 59.168L771.136 53.536C772.245 53.024 773.163 52.4267 773.888 51.744C775.893 49.6107 778.389 45.9627 781.376 40.8C779.072 41.184 776 41.6533 772.16 42.208L770.624 36.64C771.563 36.256 772.437 35.4667 773.248 34.272C776.32 28.5547 779.008 22.2187 781.312 15.264L787.136 17.568ZM793.024 38.88C793.451 38.752 793.856 38.6027 794.24 38.432C796.16 37.024 798.635 33.4187 801.664 27.616H791.744V21.792H807.296C806.528 19.744 805.696 17.824 804.8 16.032L811.008 15.008C811.947 17.3547 812.757 19.616 813.44 21.792H827.456V27.616H808C805.653 32.096 803.477 35.6587 801.472 38.304C806.72 37.792 811.883 37.152 816.96 36.384L813.12 31.136L817.728 28.256C821.909 33.632 825.173 38.4107 827.52 42.592L822.784 45.856C822.485 45.2587 821.632 43.7653 820.224 41.376C812.288 42.5707 803.669 43.5307 794.368 44.256L793.024 38.88ZM804.992 46.24C804.693 54.304 803.691 60.256 801.984 64.096C800.107 68.064 797.013 71.52 792.704 74.464L788.864 69.664C792.448 67.36 795.008 64.608 796.544 61.408C797.995 58.3787 798.848 53.3227 799.104 46.24H804.992ZM818.432 73.44C813.909 73.44 811.648 71.4133 811.648 67.36V45.536H817.472V66.208C817.472 67.2747 817.856 67.872 818.624 68H822.208C823.403 67.872 824.064 67.04 824.192 65.504C824.405 63.584 824.512 61.1093 824.512 58.08L829.76 59.936C829.76 65.952 829.291 69.7067 828.352 71.2C827.499 72.4373 825.557 73.184 822.528 73.44H818.432Z" fill="#7C7C7C"/>
</svg>
