<svg width="36" height="17" viewBox="0 0 36 17" fill="none" xmlns="http://www.w3.org/2000/svg">
<path d="M9.09 0.239999H10.872V16.872H9.09V13.092H5.814V11.4H9.09V8.79H6.822V7.098H9.09V4.614H6.462V2.922H9.09V0.239999ZM1.134 16.71L0.72 14.892C1.224 14.964 1.692 15 2.124 15C2.592 15 2.826 14.832 2.826 14.496V10.824L1.188 11.4L0.72 9.492C1.38 9.36 2.082 9.168 2.826 8.916V5.28H1.098V3.462H2.826V0.276H4.662V3.462H6.066V5.28H4.662V8.196C4.986 8.052 5.472 7.812 6.12 7.476V9.402C5.472 9.714 4.986 9.942 4.662 10.086V14.946C4.662 16.122 4.032 16.71 2.772 16.71H1.134ZM12.474 0.239999H14.274V2.922H17.154V4.614H14.274V7.098H16.704V8.79H14.274V11.4H17.28V13.092H14.274V16.872H12.474V0.239999ZM21.69 1.446H27.576C27.444 1.074 27.312 0.737999 27.18 0.438L29.07 0.114C29.202 0.485999 29.346 0.929999 29.502 1.446H34.92V3.282H23.562V7.638C23.466 11.418 22.608 14.448 20.988 16.728L19.548 15.45C20.592 14.01 21.258 12.144 21.546 9.852C20.766 10.512 19.992 11.094 19.224 11.598L18.684 9.78C19.776 9.192 20.778 8.532 21.69 7.8V1.446ZM20.25 2.94C20.79 4.056 21.234 5.208 21.582 6.396L20.016 7.08C19.56 5.7 19.098 4.548 18.63 3.624L20.25 2.94ZM29.304 7.944C29.064 8.268 28.89 8.484 28.782 8.592C27.966 9.372 26.634 9.978 24.786 10.41L23.742 8.79C25.518 8.406 26.712 7.956 27.324 7.44C27.924 6.864 28.26 6.102 28.332 5.154V3.678H30.168V5.154C30.132 5.67 30.06 6.126 29.952 6.522C31.74 7.17 33.384 7.926 34.884 8.79L33.858 10.374C32.358 9.378 30.84 8.568 29.304 7.944ZM28.35 9.33H30.258V10.554C30.234 10.914 30.21 11.184 30.186 11.364C30.618 13.248 32.346 14.544 35.37 15.252L34.182 16.962C31.878 16.242 30.282 15.168 29.394 13.74C29.178 14.1 28.938 14.43 28.674 14.73C27.738 15.702 26.22 16.446 24.12 16.962L23.04 15.27C25.068 14.802 26.448 14.214 27.18 13.506C27.876 12.738 28.266 11.754 28.35 10.554V9.33ZM27.036 11.112C26.64 12.168 26.154 13.104 25.578 13.92L24.084 13.074C24.648 12.342 25.11 11.496 25.47 10.536L27.036 11.112ZM27.162 4.632C26.778 5.76 26.292 6.762 25.704 7.638L24.21 6.792C24.786 6.024 25.254 5.112 25.614 4.056L27.162 4.632ZM34.398 4.434C34.05 5.454 33.594 6.39 33.03 7.242L31.536 6.396C32.064 5.676 32.496 4.83 32.832 3.858L34.398 4.434ZM34.344 10.95C33.996 12.018 33.564 12.948 33.048 13.74L31.5 12.876C31.98 12.192 32.388 11.346 32.724 10.338L34.344 10.95Z" fill="#4999BC"/>
</svg>
