<svg width="386" height="49" viewBox="0 0 386 49" fill="none" xmlns="http://www.w3.org/2000/svg">
<path d="M30.08 33.56V47H20.8V33.56L0 2.2H10.24L25.28 24.92H25.6L40.64 2.2H50.88L30.08 33.56ZM60.82 31.32H80.66L71.06 7.64H70.42L60.82 31.32ZM78.1 2.2L96.34 47H87.124L82.9 36.12H58.58L54.356 47H45.14L63.38 2.2H78.1ZM124.52 2.2C127.72 2.2 130.579 2.56266 133.096 3.288C135.656 3.97066 137.811 4.99466 139.56 6.36C141.309 7.68266 142.653 9.32533 143.592 11.288C144.531 13.208 145 15.4053 145 17.88C145 20.3547 144.531 22.5733 143.592 24.536C142.653 26.456 141.309 28.0987 139.56 29.464C137.811 30.7867 135.656 31.8107 133.096 32.536C130.579 33.2187 127.72 33.56 124.52 33.56H110.76V47H101.48V2.2H124.52ZM110.76 7V28.76H124.52C127.891 28.76 130.493 27.8853 132.328 26.136C134.205 24.344 135.144 21.592 135.144 17.88C135.144 14.168 134.205 11.4373 132.328 9.688C130.493 7.896 127.891 7 124.52 7H110.76ZM176.363 5.4C174.187 5.4 172.139 5.784 170.219 6.552C168.341 7.32 166.699 8.49333 165.291 10.072C163.883 11.6507 162.752 13.656 161.899 16.088C161.088 18.4773 160.683 21.3147 160.683 24.6C160.683 27.8853 161.088 30.744 161.899 33.176C162.752 35.5653 163.883 37.5493 165.291 39.128C166.699 40.7067 168.341 41.88 170.219 42.648C172.139 43.416 174.187 43.8 176.363 43.8C178.539 43.8 180.565 43.416 182.443 42.648C184.363 41.88 186.027 40.7067 187.435 39.128C188.843 37.5493 189.952 35.5653 190.763 33.176C191.616 30.744 192.043 27.8853 192.043 24.6C192.043 21.3147 191.616 18.4773 190.763 16.088C189.952 13.656 188.843 11.6507 187.435 10.072C186.027 8.49333 184.363 7.32 182.443 6.552C180.565 5.784 178.539 5.4 176.363 5.4ZM176.363 0.919998C180.203 0.919998 183.68 1.432 186.795 2.456C189.952 3.48 192.64 4.99466 194.859 7C197.12 9.00533 198.869 11.48 200.107 14.424C201.344 17.368 201.963 20.76 201.963 24.6C201.963 28.44 201.344 31.832 200.107 34.776C198.869 37.72 197.12 40.1947 194.859 42.2C192.64 44.2053 189.952 45.72 186.795 46.744C183.68 47.768 180.203 48.28 176.363 48.28C172.523 48.28 169.024 47.768 165.867 46.744C162.709 45.72 160 44.2053 157.739 42.2C155.52 40.1947 153.792 37.72 152.555 34.776C151.36 31.832 150.763 28.44 150.763 24.6C150.763 20.76 151.36 17.368 152.555 14.424C153.792 11.48 155.52 9.00533 157.739 7C160 4.99466 162.709 3.48 165.867 2.456C169.024 1.432 172.523 0.919998 176.363 0.919998ZM255.748 2.2V47H243.588L219.588 10.52H218.948V47H209.668V2.2H221.828L245.828 38.68H246.468V2.2H255.748ZM289.05 5.4C286.874 5.4 284.826 5.784 282.906 6.552C281.029 7.32 279.386 8.49333 277.978 10.072C276.57 11.6507 275.439 13.656 274.586 16.088C273.775 18.4773 273.37 21.3147 273.37 24.6C273.37 27.8853 273.775 30.744 274.586 33.176C275.439 35.5653 276.57 37.5493 277.978 39.128C279.386 40.7067 281.029 41.88 282.906 42.648C284.826 43.416 286.874 43.8 289.05 43.8C291.226 43.8 293.253 43.416 295.13 42.648C297.05 41.88 298.714 40.7067 300.122 39.128C301.53 37.5493 302.639 35.5653 303.45 33.176C304.303 30.744 304.73 27.8853 304.73 24.6C304.73 21.3147 304.303 18.4773 303.45 16.088C302.639 13.656 301.53 11.6507 300.122 10.072C298.714 8.49333 297.05 7.32 295.13 6.552C293.253 5.784 291.226 5.4 289.05 5.4ZM289.05 0.919998C292.89 0.919998 296.367 1.432 299.482 2.456C302.639 3.48 305.327 4.99466 307.546 7C309.807 9.00533 311.557 11.48 312.794 14.424C314.031 17.368 314.65 20.76 314.65 24.6C314.65 28.44 314.031 31.832 312.794 34.776C311.557 37.72 309.807 40.1947 307.546 42.2C305.327 44.2053 302.639 45.72 299.482 46.744C296.367 47.768 292.89 48.28 289.05 48.28C285.21 48.28 281.711 47.768 278.554 46.744C275.397 45.72 272.687 44.2053 270.426 42.2C268.207 40.1947 266.479 37.72 265.242 34.776C264.047 31.832 263.45 28.44 263.45 24.6C263.45 20.76 264.047 17.368 265.242 14.424C266.479 11.48 268.207 9.00533 270.426 7C272.687 4.99466 275.397 3.48 278.554 2.456C281.711 1.432 285.21 0.919998 289.05 0.919998ZM343.475 2.2C347.315 2.2 350.792 2.69066 353.907 3.672C357.064 4.61066 359.752 6.01867 361.971 7.896C364.232 9.77333 365.982 12.12 367.219 14.936C368.456 17.7093 369.075 20.9307 369.075 24.6C369.075 28.2693 368.456 31.512 367.219 34.328C365.982 37.1013 364.232 39.4267 361.971 41.304C359.752 43.1813 357.064 44.6107 353.907 45.592C350.792 46.5307 347.315 47 343.475 47H322.355V2.2H343.475ZM331.635 7V42.2H343.475C345.651 42.2 347.678 41.88 349.555 41.24C351.475 40.5573 353.139 39.512 354.547 38.104C355.955 36.6533 357.064 34.8187 357.875 32.6C358.728 30.3813 359.155 27.7147 359.155 24.6C359.155 21.4853 358.728 18.8187 357.875 16.6C357.064 14.3813 355.955 12.568 354.547 11.16C353.139 9.70933 351.475 8.664 349.555 8.024C347.678 7.34133 345.651 7 343.475 7H331.635ZM385.385 47H376.105V2.2H385.385V47Z" fill="#4999BC"/>
</svg>
